<svg xmlns="http://www.w3.org/2000/svg" viewBox="0 0 192 192" width="192" height="192" role="img" aria-label="Anime paladin sprite" shape-rendering="crispEdges">
  <title>Anime paladin sprite</title>
  <desc>Pixel-style anime paladin with holy shield, sword, blue cape, and golden light.</desc>

  <rect x="72" y="8" width="48" height="8" fill="#fde68a"/>
  <rect x="56" y="16" width="80" height="8" fill="#facc15"/>
  <rect x="40" y="24" width="112" height="8" fill="#fde68a"/>
  <rect x="56" y="32" width="80" height="8" fill="#facc15"/>

  <rect x="80" y="28" width="32" height="12" fill="#f8fafc"/>
  <rect x="64" y="40" width="64" height="12" fill="#e0f2fe"/>
  <rect x="56" y="52" width="80" height="20" fill="#f8fafc"/>
  <rect x="48" y="72" width="96" height="24" fill="#dbeafe"/>
  <rect x="64" y="96" width="64" height="40" fill="#f8fafc"/>

  <rect x="72" y="44" width="48" height="16" fill="#fde68a"/>
  <rect x="64" y="52" width="64" height="16" fill="#fbbf24"/>
  <rect x="76" y="60" width="40" height="20" fill="#fee2e2"/>
  <rect x="80" y="68" width="8" height="8" fill="#1e3a8a"/>
  <rect x="104" y="68" width="8" height="8" fill="#1e3a8a"/>
  <rect x="88" y="80" width="16" height="4" fill="#be123c"/>

  <rect x="40" y="80" width="24" height="56" fill="#2563eb"/>
  <rect x="128" y="80" width="24" height="56" fill="#1d4ed8"/>

  <rect x="56" y="88" width="80" height="16" fill="#bfdbfe"/>
  <rect x="68" y="104" width="56" height="12" fill="#facc15"/>
  <rect x="80" y="100" width="32" height="44" fill="#e0f2fe"/>
  <rect x="92" y="104" width="8" height="40" fill="#facc15"/>
  <rect x="80" y="116" width="32" height="8" fill="#facc15"/>

  <rect x="32" y="104" width="32" height="40" fill="#f8fafc"/>
  <rect x="24" y="112" width="48" height="24" fill="#bfdbfe"/>
  <rect x="32" y="120" width="32" height="8" fill="#facc15"/>

  <rect x="140" y="44" width="8" height="92" fill="#e5e7eb"/>
  <rect x="136" y="48" width="16" height="8" fill="#f8fafc"/>
  <rect x="132" y="56" width="24" height="8" fill="#facc15"/>
  <rect x="136" y="136" width="16" height="8" fill="#facc15"/>

  <rect x="72" y="136" width="16" height="32" fill="#dbeafe"/>
  <rect x="104" y="136" width="16" height="32" fill="#dbeafe"/>
  <rect x="64" y="160" width="28" height="12" fill="#f8fafc"/>
  <rect x="100" y="160" width="28" height="12" fill="#f8fafc"/>
  <rect x="56" y="172" width="40" height="8" fill="#facc15"/>
  <rect x="96" y="172" width="40" height="8" fill="#facc15"/>
</svg>
